<?xml version="1.0" encoding="UTF-8"?>
<svg version="1.1" viewBox="0 0 1024 1024" width="1280" height="1280" xmlns="http://www.w3.org/2000/svg">
<path transform="translate(268,472)" d="m0 0 5 1 8 7 12 11 11 12 11 14 10 14 17 28 9 14 9 13 8 10 9 10 12 12 17 13 18 11 19 9 19 6 19 4 7 1h35l18-3 20-6 18-8 16-10 14-12 13-14 9-11 9-10 2 1-6 16-9 16-12 16-11 12-7 8-9 9-8 7-16 13-19 14-21 13-23 13-30 15-27 11-30 10-26 6-24 3h-23l-18-3-16-6-11-7-12-11-9-13-5-12-3-13-1-231z" fill="#010101"/>
<path transform="translate(689,332)" d="m0 0 15 1 14 4 10 6 9 8 7 11 4 9 2 10v78l-4 4-7-1-13-13-15-11-14-8-15-7-20-6-16-3-11-1h-17l-17 2-21 5-15 6-13 7-11 8-12 11-9 11-8 13-6 14-4 17v23l4 16 5 12 9 13 5 4h7l2-5-3-5-9-13-6-16-2-17 2-15 5-14 7-11 9-10 10-7 10-5 16-4h15l16 4 12 6 9 7 9 9 9 14 5 13 2 13v10l-3 17-5 13-6 11-9 12-12 12-15 10-14 6-14 4-7 1h-22l-15-3-15-6-11-7-13-11-10-13-9-17-5-17-1-6v-31l5-23 7-16 8-15 9-12 9-10 9-9 15-11 24-14 29-15 36-19 16-8 29-14 19-5z" fill="#020202"/>
<path transform="translate(668,304)" d="m0 0h15l12 3 4 5-1 6-3 2-24 3-16 5-30 14-16 8-27 14-33 17-24 14-13 9-11 9-12 12-13 17-9 16-7 16-5 17-2 11-1 11v12l2 17 5 19 6 14 9 13 9 10 10 9 16 10 19 7 19 3h11l15-2 16-5 9-4 2 1-11 9-16 9-19 8-19 5-12 2h-35l-18-3-24-7-19-9-14-9-13-10-13-12-7-7-11-14-14-20-15-25-13-19-13-17-15-16-13-13-9-12-8-14-3-8 1-7 5-2 10 9 14 9 13 6 15 5 14 3 9 1h31l23-4 17-5 19-8 14-7 12-8 14-10 14-11 10-8-19 9-44 22-21 8-17 5-16 3-12 1h-22l-21-3-15-4-11-5-11-6-12-11-7-10-4-13v-8l3-10 5-8 4-5 2 1-4 7-1 4v14l4 11 7 9 8 8 14 8 17 6 15 3 11 1h17l23-3 20-6 24-10 26-13 19-10 22-11 22-12 29-15 19-10 33-17 16-8 21-10 11-4z" fill="#040404"/>
<path transform="translate(568,223)" d="m0 0h18l12 3 8 6 2 4-1 7-3 3-20 8-30 15-2 4 4 4h7l9-4 21-11 10-4 5-1h18l7 3 3 4-1 5-6 3-13 3-29 14-45 23-36 19-13 9-10 10-9 15-2 6 1 6 7-1 4-5 5-10 8-10 8-6 18-10 28-14 19-10 39-20 15-7 11-3h20l7 3 3 5-3 5-17 4-17 7-54 27-22 12-20 10-53 28-25 13-23 11-25 10-19 5-8 1h-31l-21-4-11-4-11-6-10-9-5-7-2-6v-11l4-8 7-7 14-7 14-3 12-1v2l-8 4-6 5-5 8-1 3v14l5 10 5 5 9 6 11 4 12 2h10l14-2 14-5 10-7 6-8 3-8 5 2 5 3v-75l3-10 6-11 8-8 14-8 24-12 19-10 30-15 19-10 11-4z" fill="#050505"/>
<path transform="translate(460,820)" d="m0 0h72l59 3 37 3 20 3 13 4 2 4-4 3-19 4-32 3-44 2h-117l-54-2-33-3-18-3-6-3v-4l9-4 25-4 65-5z" fill="#595959"/>
<path transform="translate(604,438)" d="m0 0h16l16 3 16 7 11 7 10 9 9 10 8 13 7 16 4 17 1 9v23l-3 20-6 20-11 23-12 17-7 6-5 1-8-4-5-6-2-4v-9l9-17 7-19 5-23 1-9v-22l-3-17-5-15-8-14-10-13-12-10-12-7-15-5-10-2 1-2z" fill="#050505"/>
<path transform="translate(363,352)" d="m0 0h10l15 3 10 5 7 8 2 5-1 9-4 6-9 7-11 4-6 1h-18l-11-3-8-4-8-9-1-4v-7l4-8 7-6 11-5z" fill="#050505"/>
<path transform="translate(727,588)" d="m0 0h7l5 5 1 5-6 16-9 17-10 13-9 10-7 6h-8l-5-5v-6l7-8 4-2 2-4 8-10 9-16 7-17z" fill="#080808"/>
<path transform="translate(260,267)" d="m0 0h9l9 4 6 7 2 6v7l-5 10-6 5-6 2h-10l-8-4-6-9-1-2v-10l5-10 8-5z" fill="#070707"/>
<path transform="translate(719,464)" d="m0 0 6 1 7 7 8 13 8 16 6 18v7l-4 5-7 1-5-3-4-11-6-16-9-16-7-10v-7l4-4z" fill="#090909"/>
<path transform="translate(488,260)" d="m0 0 3 1 2 2h-5l-2 3-1 2-9 2-1 5-3 1-1 3-4-1-1 5-5 2-9 7-7 2-1 2-7 1 1 2-2 2v-3h-2l2-5 7-8 10-7 30-15z" fill="#515151"/>
<path transform="translate(668,660)" d="m0 0h9l6 5 1 2v9l-5 6-2 1h-8l-5-3-3-5v-8l5-6z" fill="#090909"/>
<path transform="translate(529,725)" d="m0 0 8 1 4 5 1 7-4 6-5 2-7-1-4-4-1-9 3-5z" fill="#101010"/>
<path transform="translate(690,698)" d="m0 0 7 1 5 5v8l-2 4-5 3-8-1-5-6v-7l5-6z" fill="#0B0B0B"/>
<path transform="translate(583,695)" d="m0 0h9l5 5 1 7-3 5-4 3h-7l-5-4-2-4 1-7z" fill="#0B0B0B"/>
<path transform="translate(738,680)" d="m0 0h8l5 5 1 2v6l-4 6-2 1h-9l-5-6v-8l4-5z" fill="#080808"/>
<path transform="translate(260,267)" d="m0 0h9l9 4 4 4v2l-5-2-1 2-3-1-12 4h-11v3l-4 2-1 8h-1v-10l5-10 8-5z" fill="#575757"/>
<path transform="translate(334,278)" d="m0 0h8l5 5 1 2v6l-5 6-8 1-5-3-2-3v-9l4-4z" fill="#0C0C0C"/>
<path transform="translate(622,660)" d="m0 0 5 1 5 5v7l-4 5-6 1-6-3-2-4v-6l5-5z" fill="#101010"/>
<path transform="translate(637,642)" d="m0 0h7l5 4 1 7-3 5-5 2-6-1-4-5v-7z" fill="#0A0A0A"/>
<path transform="translate(731,280)" d="m0 0 5 1 4 4 1 5-3 5-4 2-6-1-3-3-1-6 3-5z" fill="#171717"/>
<path transform="translate(665,740)" d="m0 0 7 1 3 4v7l-5 4-7-1-3-4v-6z" fill="#161616"/>
<path transform="translate(665,220)" d="m0 0h7l4 4v7l-5 4-7-1-3-4 1-7z" fill="#121212"/>
<path transform="translate(743,545)" d="m0 0 6 1 3 3 1 6-5 5h-6l-4-3-1-5 3-5z" fill="#151515"/>
<path transform="translate(714,748)" d="m0 0 7 1 3 4v6l-4 4h-7l-4-5 1-7z" fill="#141414"/>
<path transform="translate(331,219)" d="m0 0 5 1 4 4v6l-5 4h-6l-4-5 1-6 3-3z" fill="#4F4F4F"/>
<path transform="translate(283,362)" d="m0 0" fill="#555"/>
</svg>
